<svg width="40" height="40" viewBox="0 0 40 40" fill="none" xmlns="http://www.w3.org/2000/svg">
<rect width="40" height="40" rx="15" fill="#EBEBF0"/>
<path fill-rule="evenodd" clip-rule="evenodd" d="M21.0477 19.9578L26.2984 25.2085C26.6889 25.599 26.6889 26.2322 26.2984 26.6227C25.9079 27.0132 25.2747 27.0132 24.8842 26.6227L19.7956 21.5342L14.7071 26.6227C14.3166 27.0132 13.6834 27.0132 13.2929 26.6227C12.9024 26.2322 12.9024 25.599 13.2929 25.2085L18.5436 19.9578L13.2929 14.7071C12.9024 14.3166 12.9024 13.6834 13.2929 13.2929C13.6834 12.9024 14.3166 12.9024 14.7071 13.2929L19.7956 18.3814L24.8842 13.2929C25.2747 12.9024 25.9079 12.9024 26.2984 13.2929C26.6889 13.6834 26.6889 14.3166 26.2984 14.7071L21.0477 19.9578Z" fill="#C1C1CB"/>
</svg>
