<svg width="64" height="64" viewBox="0 0 64 64" fill="none" xmlns="http://www.w3.org/2000/svg">
<circle cx="32" cy="32" r="32" fill="#EBEBF0"/>
<path fill-rule="evenodd" clip-rule="evenodd" d="M38.181 27.3644C38.181 29.004 37.5297 30.5763 36.3704 31.7356C35.2111 32.895 33.6387 33.5463 31.9992 33.5463C30.3597 33.5463 28.7873 32.895 27.628 31.7356C26.4687 30.5763 25.8174 29.004 25.8174 27.3644C25.8174 25.7249 26.4687 24.1525 27.628 22.9932C28.7873 21.8339 30.3597 21.1826 31.9992 21.1826C33.6387 21.1826 35.2111 21.8339 36.3704 22.9932C37.5297 24.1525 38.181 25.7249 38.181 27.3644ZM35.0901 27.3644C35.0901 28.1842 34.7645 28.9704 34.1848 29.55C33.6051 30.1297 32.819 30.4553 31.9992 30.4553C31.1794 30.4553 30.3933 30.1297 29.8136 29.55C29.2339 28.9704 28.9083 28.1842 28.9083 27.3644C28.9083 26.5447 29.2339 25.7585 29.8136 25.1788C30.3933 24.5992 31.1794 24.2735 31.9992 24.2735C32.819 24.2735 33.6051 24.5992 34.1848 25.1788C34.7645 25.7585 35.0901 26.5447 35.0901 27.3644Z" fill="#C1C1CB"/>
<path fill-rule="evenodd" clip-rule="evenodd" d="M32 15C22.6114 15 15 22.6114 15 32C15 41.3886 22.6114 49 32 49C41.3886 49 49 41.3886 49 32C49 22.6114 41.3886 15 32 15ZM18.0909 32C18.0909 35.23 19.1928 38.2035 21.0396 40.5649C22.3366 38.8617 24.0098 37.4813 25.9286 36.5318C27.8473 35.5822 29.9596 35.0891 32.1005 35.0909C34.2136 35.0889 36.2993 35.5693 38.1987 36.4954C40.0981 37.4215 41.761 38.769 43.0608 40.4351C44.3999 38.6788 45.3015 36.629 45.691 34.4551C46.0806 32.2812 45.9468 30.0458 45.3009 27.9339C44.655 25.8219 43.5155 23.8942 41.9767 22.3101C40.4378 20.726 38.5438 19.5311 36.4515 18.8242C34.3592 18.1174 32.1286 17.919 29.9443 18.2454C27.7601 18.5718 25.6849 19.4137 23.8906 20.7013C22.0963 21.9889 20.6344 23.6853 19.6259 25.65C18.6174 27.6148 18.0912 29.7915 18.0909 32ZM32 45.9091C28.807 45.9139 25.7104 44.8154 23.2342 42.7996C24.2309 41.3728 25.5575 40.2078 27.1012 39.4038C28.6449 38.5998 30.3599 38.1806 32.1005 38.1818C33.8192 38.1804 35.5136 38.5892 37.0427 39.374C38.5718 40.1589 39.8917 41.2972 40.8925 42.6945C38.3971 44.7758 35.2494 45.9136 32 45.9091Z" fill="#C1C1CB"/>
</svg>
